<svg id="Layer_1" data-name="Layer 1" xmlns="http://www.w3.org/2000/svg" viewBox="0 0 512 512"><title>dead</title><g id="dead"><path d="M512,256c0,141.38-114.62,256-256,256S0,397.38,0,256,114.61,0,256,0,512,114.62,512,256" fill="#ffd764"/><path d="M96,244.81a10.24,10.24,0,0,1-7.24-17.48L192.25,123.9a10.24,10.24,0,1,1,14.48,14.48L103.29,241.81a10.2,10.2,0,0,1-7.24,3Z" fill="#4a4a4a"/><path d="M199.49,244.82a10.21,10.21,0,0,1-7.24-3L88.81,138.38a10.24,10.24,0,1,1,14.48-14.48L206.73,227.34a10.24,10.24,0,0,1-7.24,17.48Z" fill="#4a4a4a"/><path d="M312.53,244.81a10.24,10.24,0,0,1-7.24-17.48L408.73,123.9a10.24,10.24,0,1,1,14.48,14.48L319.77,241.81a10.2,10.2,0,0,1-7.24,3Z" fill="#4a4a4a"/><path d="M416,244.82a10.21,10.21,0,0,1-7.24-3L305.29,138.38a10.24,10.24,0,1,1,14.48-14.48L423.21,227.34A10.24,10.24,0,0,1,416,244.82Z" fill="#4a4a4a"/><path d="M257,319.24V430.08c0,27.16,28.7,49.4,63.72,49.4h5.68c35,0,63.72-22.24,63.72-49.4V319.24Z" fill="#fa645a"/><path d="M323.55,428.28A10.23,10.23,0,0,1,313.31,418V331a10.24,10.24,0,0,1,20.48,0v87a10.23,10.23,0,0,1-10.24,10.24Z" fill="#ae453e"/><path d="M390.09,337.92H121.91a10.24,10.24,0,0,1,0-20.48H390.09a10.24,10.24,0,0,1,0,20.48Z" fill="#4a4a4a"/></g></svg>